<svg xmlns="http://www.w3.org/2000/svg" version="1.1" xmlns:xlink="http://www.w3.org/1999/xlink" xmlns:svgjs="http://svgjs.dev/svgjs" width="2000" height="348" viewBox="0 0 2000 348"><g transform="matrix(1,0,0,1,-1.2121212121212466,-15.72179308809362)"><svg viewBox="0 0 396 69" data-background-color="#ffffff" preserveAspectRatio="xMidYMid meet" height="348" width="2000" xmlns="http://www.w3.org/2000/svg" xmlns:xlink="http://www.w3.org/1999/xlink"><g id="tight-bounds" transform="matrix(1,0,0,1,0.2400000000000091,3.121054249525713)"><svg viewBox="0 0 395.52 65.49620994616397" height="65.49620994616397" width="395.52"><g><svg viewBox="0 0 496.14601486116646 82.15939409713681" height="65.49620994616397" width="395.52"><g transform="matrix(1,0,0,1,100.62601486116651,1.968095776033941)"><svg viewBox="0 0 395.52 78.22320254506893" height="78.22320254506893" width="395.52"><g id="textblocktransform"><svg viewBox="0 0 395.52 78.22320254506893" height="78.22320254506893" width="395.52" id="textblock"><g><svg viewBox="0 0 395.52 78.22320254506893" height="78.22320254506893" width="395.52"><g transform="matrix(1,0,0,1,0,0)"><svg width="395.52" viewBox="3.1 -35.95 188.59 37.300000000000004" height="78.22320254506893" data-palette-color="#ca3433"><path d="M5.7-34.5L9.5-34.6 12.7-34.7Q13.3-34.7 14.05-34.75 14.8-34.8 15.55-34.85L15.55-34.85Q17.25-35 18.35-35L18.35-35 22.55-34.95Q23.7-34.95 23.7-34.2L23.7-34.2 23.7-31.7Q23.7-31.25 23.53-31.18 23.35-31.1 22.8-31.1L22.8-31.1Q22.15-31.1 21.65-31.15L21.65-31.15 18.45-31.2Q16.55-31.2 14.75-31L14.75-31 12.3-30.85 12.15-29.95Q12.05-28.85 12.05-28.2L12.05-28.2 12-23.75 11.95-21.2 11.95-20Q13-20 13.5-20.05L13.5-20.05 15.9-20.1 17.9-20.15Q18.6-20.2 19.85-20.2L19.85-20.2Q20.65-20.2 20.93-20 21.2-19.8 21.2-19.35L21.2-19.35 21.15-17.7Q21.15-17.3 20.93-17.15 20.7-17 20-17L20-17Q19.1-17 18.5-17.05L18.5-17.05 16.5-17.1 11.85-17.1Q11.85-15.8 11.9-15.2L11.9-15.2 11.95-12.05 11.9-9.6Q11.8-8 11.8-7.15L11.8-7.15 11.85-1.25Q11.85-0.6 11.58-0.35 11.3-0.1 10.7-0.1L10.7-0.1Q10.45-0.1 9.55-0.2L9.55-0.2Q9.1-0.25 7.7-0.25L7.7-0.25 4.05-0.2Q3.5-0.25 3.38-0.4 3.25-0.55 3.25-0.83 3.25-1.1 3.25-1.2L3.25-1.2 3.2-3.85Q3.2-4.55 3.15-5.05L3.15-5.05 3.1-8.45Q3.1-9.2 3.18-9.98 3.25-10.75 3.25-11.1L3.25-11.1Q3.4-12.25 3.4-13.7L3.4-13.7 3.35-19.4 3.4-22.7Q3.5-25 3.5-26.2L3.5-26.2Q3.5-29 3.4-33.1L3.4-33.1Q3.4-34 3.63-34.3 3.85-34.6 4.3-34.6L4.3-34.6Q4.6-34.6 4.93-34.55 5.25-34.5 5.7-34.5L5.7-34.5ZM45.65-34.9Q48.65-32.9 50.47-29.5 52.3-26.1 53.02-22.88 53.75-19.65 53.75-17.8L53.75-17.8Q53.75-14.7 52.77-10.6 51.8-6.5 48.6-2.98 45.4 0.55 39.35 0.55L39.35 0.55Q31.05 0.55 27.55-9.1L27.55-9.1Q26-13.45 25.8-18.8L25.8-18.8Q25.8-23.2 27.65-27.18 29.5-31.15 32.52-33.55 35.55-35.95 38.75-35.95L38.75-35.95Q41.65-35.95 43.07-35.8 44.5-35.65 45.65-34.9L45.65-34.9ZM39.1-2.25Q44.4-2.25 47-6.68 49.6-11.1 49.6-17.8L49.6-17.8Q49.6-21.9 48.37-25.38 47.15-28.85 44.92-30.93 42.7-33 39.8-33L39.8-33Q39.55-33 38.47-33 37.4-33 36.6-32.65 35.8-32.3 35.15-31.6L35.15-31.6Q33.5-29.95 32.37-28.58 31.25-27.2 30.12-24.5 29-21.8 29-18.25L29-18.25Q29-14.05 30.02-10.43 31.05-6.8 33.3-4.53 35.55-2.25 39.1-2.25L39.1-2.25ZM81.5-2.05Q82.84-0.7 82.84-0.2L82.84-0.2Q82.84-0.1 82.59 0.15L82.59 0.15Q82.15 0.45 80.34 0.45L80.34 0.45Q79.05 0.45 78.7 0.28 78.34 0.1 78.17-0.3 78-0.7 77.9-0.9L77.9-0.9Q77.75-1.2 76.67-2.63 75.59-4.05 75.05-4.8L75.05-4.8Q72.4-8.2 70.45-10.95L70.45-10.95Q69.25-12.65 66-16.8L66-16.8 65.2-17.8 61.75-22.1 61.55-20.1Q61.35-18.6 61.45-16.5L61.45-16.5Q61.6-15.1 61.65-9.25 61.7-3.4 61.7-0.7L61.7-0.7Q61.7 0.1 61.1 0.33 60.5 0.55 59.7 0.55L59.7 0.55Q59.35 0.55 59.25 0.25 59.15-0.05 59.12-0.4 59.1-0.75 59.1-0.85L59.1-0.85Q59-1.65 59-3.2L59-3.2Q59-4.2 59.05-4.7L59.05-4.7Q59.1-7.4 59.2-14.13 59.3-20.85 59.3-26.2L59.3-26.2Q59.3-31.95 59.15-32.9L59.15-32.9Q59.1-33.3 59.1-33.95L59.1-33.95Q59.1-34.7 59.32-34.9 59.55-35.1 60-35.1L60-35.1Q61-35.1 61.95-35.05L61.95-35.05 67.4-34.95Q70.4-34.95 73.65-33.9 76.9-32.85 76.9-30L76.9-30Q76.9-27.3 74.9-25.8 72.9-24.3 70.42-23.75 67.95-23.2 66.09-23.2L66.09-23.2Q65.45-23.2 65.4-23.25L65.4-23.25Q65.7-22.95 69.34-17.95L69.34-17.95Q80.34-3.2 81.5-2.05L81.5-2.05ZM61.6-25.25Q63.25-25.25 64.09-25.3L64.09-25.3Q67-25.4 68.59-25.7L68.59-25.7Q70.9-26.1 72.07-26.8 73.25-27.5 73.25-29L73.25-29Q73.25-30 72.2-30.73 71.15-31.45 69.67-31.83 68.2-32.2 67.09-32.2L67.09-32.2Q65.84-32.25 63.6-32.25L63.6-32.25 61.9-32.25 61.6-25.25ZM90.79-33.7Q90.89-32.55 91.27-31.2 91.64-29.85 92.34-27.7L92.34-27.7Q92.84-26.15 94.92-20.75 96.99-15.35 97.69-13.8L97.69-13.8Q98.34-12.15 99.44-8.75L99.44-8.75 100.54-5.35 101.19-6.5 102.59-9.25Q102.89-9.95 104.44-12.9L104.44-12.9Q107.69-18.95 108.69-21.3L108.69-21.3Q109.44-23.05 110.84-26L110.84-26Q111.19-26.8 111.72-27.93 112.24-29.05 112.44-29.55L112.44-29.55Q112.54-29.85 113.07-31.43 113.59-33 114.12-34.1 114.64-35.2 114.99-35.2L114.99-35.2Q115.39-35.2 115.39-34.05L115.39-34.05Q115.39-33.4 115.34-32.77 115.29-32.15 115.24-31.65L115.24-31.65 115.09-29.85Q114.94-27.25 114.94-20.25L114.94-20.25Q114.94-17.8 114.87-14.03 114.79-10.25 114.69-8.95L114.69-8.95 114.64-0.8 114.64-0.65Q114.64-0.15 114.09-0.15L114.09-0.15Q112.74-0.15 112.34-0.2L112.34-0.2Q112.09-0.25 112.09-0.6L112.09-0.6 112.14-1.45Q112.14-3.6 112.24-8.47 112.34-13.35 112.49-14.95L112.49-14.95Q112.54-16.15 112.54-20L112.54-20Q112.54-22.1 112.49-23.2L112.49-23.2Q111.44-21.35 111.24-20.9L111.24-20.9Q110.84-20.2 110.09-18.7L110.09-18.7Q109.94-18.4 109.74-18 109.54-17.6 109.29-17.2L109.29-17.2Q108.64-15.9 106.39-11.35L106.39-11.35 104.79-8.05Q104.29-7.2 103.14-4.95 101.99-2.7 101.59-1.9L101.59-1.9 100.79-0.3Q100.49 0.35 100.07 0.85 99.64 1.35 99.34 1.35L99.34 1.35Q99.04 1.35 98.92 1.2 98.79 1.05 98.69 0.73 98.59 0.4 98.54 0.25L98.54 0.25Q98.44-0.05 97.44-2.93 96.44-5.8 95.89-7.05L95.89-7.05Q95.19-8.75 94.09-11.5 92.99-14.25 92.64-15.45L92.64-15.45Q92.19-16.7 91.84-17.85L91.84-17.85 91.09-20.2Q90.14-23 89.99-23.55L89.99-23.55 89.89-21.7Q89.84-20.65 89.84-18.5L89.84-18.5Q89.84-11.4 89.64-8.6L89.64-8.6Q89.59-7.9 89.59-5.75L89.59-5.75 89.64-0.7 89.64-0.55Q89.64 0.35 88.94 0.25L88.94 0.25Q88.69 0.15 88.14 0.15 87.59 0.15 87.34 0.15L87.34 0.15Q87.09 0.15 87.09-0.2L87.09-0.2 87.14-1.1 87.04-5.9 86.89-16.35Q86.89-18.9 86.99-22.48 87.09-26.05 87.19-27.3L87.19-27.3Q87.34-28.95 87.42-30.93 87.49-32.9 87.49-34.15L87.49-34.15 87.49-34.35Q87.49-35 87.64-35.08 87.79-35.15 88.14-35.1L88.14-35.1 88.54-35.1Q89.34-35.1 89.79-35.15L89.79-35.15Q90.64-35.15 90.79-33.7L90.79-33.7ZM131.94-16.75Q132.54-17.05 133.74-19.5L133.74-19.5 134.39-20.7Q134.49-20.9 135.39-22.3L135.39-22.3Q135.64-22.75 136.54-24.13 137.44-25.5 137.64-26.1L137.64-26.1Q138.14-26.9 138.52-27.28 138.89-27.65 139.34-27.65L139.34-27.65Q139.69-27.65 139.81-27.45 139.94-27.25 140.02-26.83 140.09-26.4 140.24-25.95L140.24-25.95Q140.29-25.45 140.69-23.7L140.69-23.7 141.29-20.7Q141.69-19.15 142.24-17.95L142.24-17.95Q142.44-17.4 142.79-16.75L142.79-16.75Q142.89-17.2 143.09-17.65L143.09-17.65 143.69-19.2Q143.74-19.5 143.94-20.13 144.14-20.75 144.24-21.15L144.24-21.15Q145.14-24.15 145.24-24.55L145.24-24.55Q145.64-26.2 146.64-29.43 147.64-32.65 148.04-33.65L148.04-33.65Q148.24-34.5 148.67-34.7 149.09-34.9 149.59-34.88 150.09-34.85 150.29-34.85L150.29-34.85 154.39-34.85Q155.39-34.85 155.39-34.25L155.39-34.25Q155.39-34 155.34-33.77 155.29-33.55 155.24-33.35L155.24-33.35Q155.04-32.85 154.79-31.9L154.79-31.9Q154.14-29.75 153.49-28L153.49-28Q152.49-25 151.29-20.6L151.29-20.6 150.74-18.7 149.64-14.1 148.19-8.15Q147.54-5.95 146.44-3.08 145.34-0.2 144.89-0.2L144.89-0.2Q144.34-0.2 143.94-0.93 143.54-1.65 143.19-2.8L143.19-2.8Q142.74-3.65 141.97-5.85 141.19-8.05 140.59-10.05L140.59-10.05Q140.34-11.15 139.44-13.95L139.44-13.95Q139.14-14.75 139.04-15.15L139.04-15.15 137.99-18.15Q137.74-17.5 137.64-17.35L137.64-17.35Q137.44-16.85 137.22-16.4 136.99-15.95 136.79-15.55L136.79-15.55 133.34-8.8 132.59-7.1Q131.09-3.75 130.74-2.65L130.74-2.65Q130.29-1.5 129.77-0.78 129.24-0.05 128.69-0.05L128.69-0.05Q127.94-0.05 127.69-1.4L127.69-1.4Q127.59-1.65 127.32-2.33 127.04-3 126.64-5.05L126.64-5.05Q126.39-6.35 124.69-13.65L124.69-13.65Q124.44-14.8 123.94-16.82 123.44-18.85 123.34-19.5L123.34-19.5Q122.74-21.9 122.34-23.75L122.34-23.75Q120.84-30.25 120.39-31.8L120.39-31.8Q120.14-32.95 120.14-33.4L120.14-33.4Q120.14-34 120.37-34.2 120.59-34.4 121.09-34.55L121.09-34.55 122.74-34.65Q124.54-34.85 125.74-34.85L125.74-34.85Q126.74-34.85 127.02-34.58 127.29-34.3 127.37-33.9 127.44-33.5 127.44-33.35L127.44-33.35 127.69-32.05Q128.19-29.65 128.34-29L128.34-29 129.19-26.05Q130.64-21.2 130.74-20.55L130.74-20.55Q130.89-20.1 131.09-18.8L131.09-18.8Q131.24-18.05 131.39-17.4 131.54-16.75 131.79-16.75L131.79-16.75 131.94-16.75ZM162.64-33.4Q162.49-32.3 162.39-27.75L162.39-27.75Q162.39-26.35 162.19-20.65L162.19-20.65Q161.99-15.15 161.99-13.95L161.99-13.95Q161.99-11.05 162.09-6.63 162.19-2.2 162.29-1.35L162.29-1.35Q162.34-1.05 162.34-0.65L162.34-0.65Q162.34-0.3 162.21-0.15 162.09 0 161.84 0.15L161.84 0.15Q161.54 0.35 160.29 0.35L160.29 0.35Q160.09 0.35 159.66 0.35 159.24 0.35 159.14 0.25 159.04 0.15 159.04-0.15L159.04-0.15 159.09-1.75 159.19-8.3 159.29-18.8Q159.29-20.3 159.49-25.6L159.49-25.6Q159.54-26.85 159.64-29.68 159.74-32.5 159.64-33L159.64-33 159.59-34.05Q159.59-35.35 160.39-35.35L160.39-35.35 162.24-35.3Q162.74-35.3 162.74-34.6L162.74-34.6Q162.74-34.35 162.69-34.02 162.64-33.7 162.64-33.4L162.64-33.4ZM168.19-35.2L173.09-35.25 178.54-35.2Q183.74-35.2 185.29-35.05L185.29-35.05Q188.14-34.8 189.34-34.8L189.34-34.8Q190.14-34.8 190.39-34.85L190.39-34.85 190.74-34.9Q191.09-34.9 191.16-34.77 191.24-34.65 191.21-34.48 191.19-34.3 191.19-34.2L191.19-34.2Q191.19-33.75 190.99-32.35L190.99-32.35Q190.94-31.85 190.56-31.35 190.19-30.85 189.39-29.95L189.39-29.95Q189.44-30 188.24-28.65L188.24-28.65Q186.29-26.05 183.09-21.25L183.09-21.25Q182.39-20.15 177.49-13.75L177.49-13.75 176.69-12.7Q175.59-11.2 173.44-8.45L173.44-8.45Q172.99-7.95 172.19-6.6L172.19-6.6 171.44-5.4 170.14-3.25Q172.49-3.2 176.49-3.2L176.49-3.2 183.44-3.15 185.49-3.05 187.89-2.95 191.19-3 191.29-3Q191.69-3 191.66-2.78 191.64-2.55 191.64-2.5L191.64-2.5 191.69-0.9Q191.69-0.3 191.04-0.3L191.04-0.3Q190.89-0.3 190.29-0.4L190.29-0.4Q188.84-0.65 187.09-0.55L187.09-0.55 182.24-0.45 175.44-0.3Q167.99-0.3 166.74-0.15L166.74-0.15 166.44-0.15Q165.94-0.15 165.84-0.35 165.74-0.55 165.76-0.75 165.79-0.95 165.79-1.05L165.79-1.05Q165.79-1.8 166.69-3.1L166.69-3.1Q167.44-4.1 167.74-4.55L167.74-4.55Q172.74-11.35 173.84-12.7L173.84-12.7 177.29-17.1Q181.69-22.7 182.49-23.7L182.49-23.7Q184.14-25.7 186.34-29.1L186.34-29.1 188.34-32.25 185.34-32.25Q181.89-32.25 180.94-32.3L180.94-32.3Q179.39-32.3 178.04-32.35L178.04-32.35Q173.54-32.45 170.54-32.45L170.54-32.45Q168.39-32.45 167.49-32.35L167.49-32.35Q165.59-32.2 165.59-33.05L165.59-33.05Q165.59-34.05 165.79-35L165.79-35Q165.84-35.45 166.39-35.45L166.39-35.45Q166.64-35.45 167.24-35.33 167.84-35.2 168.19-35.2L168.19-35.2Z" opacity="1" transform="matrix(1,0,0,1,0,0)" fill="#ca3433" class="wordmark-text-0" data-fill-palette-color="primary" id="text-0"></path></svg></g></svg></g></svg></g></svg></g><g><svg viewBox="0 0 82.15939409713681 82.15939409713681" height="82.15939409713681" width="82.15939409713681"><g><svg xmlns="http://www.w3.org/2000/svg" viewBox="0 0 24 24" enable-background="new 0 0 24 24" x="0" y="0" height="82.15939409713681" width="82.15939409713681" class="icon-icon-0" data-fill-palette-color="accent" id="icon-0"><g fill="#ca3433" data-fill-palette-color="accent"><path d="M12 24A1 1 0 0 1 11 23C11 20.243 13.243 18 16 18A1 1 0 1 1 16 20C14.346 20 13 21.346 13 23A1 1 0 0 1 12 24M8 20A1 1 0 1 1 8 18C9.654 18 11 16.654 11 15A1 1 0 1 1 13 15C13 17.757 10.757 20 8 20M12 24A1 1 0 0 1 11 23C11 21.346 9.654 20 8 20A1 1 0 1 1 8 18C10.757 18 13 20.243 13 23A1 1 0 0 1 12 24M16 20C13.243 20 11 17.757 11 15A1 1 0 1 1 13 15C13 16.654 14.346 18 16 18A1 1 0 1 1 16 20M19 10A1 1 0 0 1 18 9C18 6.243 20.243 4 23 4A1 1 0 1 1 23 6C21.346 6 20 7.346 20 9A1 1 0 0 1 19 10M15 6A1 1 0 1 1 15 4C16.654 4 18 2.654 18 1A1 1 0 1 1 20 1C20 3.757 17.757 6 15 6M19 10A1 1 0 0 1 18 9C18 7.346 16.654 6 15 6A1 1 0 1 1 15 4C17.757 4 20 6.243 20 9A1 1 0 0 1 19 10M23 6C20.243 6 18 3.757 18 1A1 1 0 1 1 20 1C20 2.654 21.346 4 23 4A1 1 0 1 1 23 6M6 4A1 1 0 0 1 5 3V1A1 1 0 0 1 7 1V3A1 1 0 0 1 6 4M6 12A1 1 0 0 1 5 11V9A1 1 0 0 1 7 9V11A1 1 0 0 1 6 12M6 7C5.74 7 5.48 6.89 5.29 6.71 5.11 6.52 5 6.26 5 6S5.11 5.48 5.29 5.29C5.66 4.92 6.33 4.92 6.71 5.29 6.89 5.48 7 5.74 7 6S6.89 6.52 6.71 6.71C6.52 6.89 6.26 7 6 7M3 7H1A1 1 0 0 1 1 5H3A1 1 0 0 1 3 7M11 7H9A1 1 0 0 1 9 5H11A1 1 0 0 1 11 7" fill="#ca3433" data-fill-palette-color="accent"></path><circle cx="5" cy="23" r="1.0" fill="#ca3433" data-fill-palette-color="accent"></circle><circle cx="2" cy="16" r="1.0" fill="#ca3433" data-fill-palette-color="accent"></circle><circle cx="19" cy="23" r="1.0" fill="#ca3433" data-fill-palette-color="accent"></circle><circle cx="12" cy="11" r="1.0" fill="#ca3433" data-fill-palette-color="accent"></circle><circle cx="20" cy="15" r="1.0" fill="#ca3433" data-fill-palette-color="accent"></circle></g></svg></g></svg></g></svg></g><defs></defs></svg><rect width="395.52" height="65.49620994616397" fill="none" stroke="none" visibility="hidden"></rect></g></svg></g></svg>